<svg class="position-icon   w-5 h-5 w-6 h-6" viewBox="0 0 24 24" xmlns="http://www.w3.org/2000/svg" aria-label="포지션 전체">
    <path fill="#fff" d="M16.2928076,17.0307921 C16.6549683,17.6584306 16.4399705,18.4608135 15.8125108,18.8232841 C15.1844161,19.1872046 14.3817451,18.9719172 14.0194579,18.3440595 L11.8751153,14.6269842 L9.73077279,18.3440595 C9.36848556,18.9719172 8.56581451,19.1872046 7.93795682,18.8249174 C7.31026014,18.4608135 7.09526232,17.6584306 7.45742309,17.0307921 L9.60202464,13.3132678 L5.31251922,13.3132678 C4.58763487,13.3132678 4,12.7256329 4,12.0007486 C4,11.2743674 4.58763487,10.6867325 5.31251922,10.6867325 L9.60202464,10.6867325 L7.45742309,6.96920825 C7.09526232,6.34156972 7.31026014,5.53918682 7.93771981,5.17671625 C8.56581451,4.8127957 9.36848556,5.0280831 9.73077279,5.65594079 L11.8751153,9.37301611 L14.0194579,5.65594079 C14.3817451,5.0280831 15.1844161,4.8127957 15.8122738,5.17508293 C16.4399705,5.53918682 16.6549683,6.34156972 16.2928076,6.96920825 L14.148206,10.6867325 L18.4377114,10.6867325 C19.1625958,10.6867325 19.7502307,11.2743674 19.7502307,11.9992518 C19.7502307,12.7256329 19.1625958,13.3132678 18.4377114,13.3132678 L14.148206,13.3132678 L16.2928076,17.0307921 Z"/>
</svg>